<?xml version="1.0" encoding="UTF-8"?>
<svg width="147px" height="25px" viewBox="0 0 147 25" version="1.1" xmlns="http://www.w3.org/2000/svg" xmlns:xlink="http://www.w3.org/1999/xlink">
    <!-- Generator: Sketch 50.2 (55047) - http://www.bohemiancoding.com/sketch -->
    <title>Educated.</title>
    <desc>Created with Sketch.</desc>
    <defs></defs>
    <g id="Page-1" stroke="none" stroke-width="1" fill="none" fill-rule="evenodd">
        <path d="M0.672,1.6 L17.312,1.6 L17.632,7.936 L17.056,7.936 C15.296,3.744 13.792,2.304 9.92,2.304 L8.8,2.304 L8.8,12.192 L9.888,12.192 C11.968,12.192 13.312,10.432 13.856,8 L14.336,8 L14.336,17.472 L13.792,17.472 C13.024,14.272 11.808,13.024 9.568,13.024 L8.8,13.024 L8.8,23.296 L10.016,23.296 C14.08,23.296 16.896,20.512 17.856,17.024 L18.496,17.024 L18.24,24 L0.672,24 L0.672,23.296 L2.56,23.296 L2.56,2.304 L0.672,2.304 L0.672,1.6 Z M28.544,22.944 C29.472,22.944 30.752,22.048 30.752,19.648 L30.752,12.672 C30.752,10.944 30.08,9.376 28.672,9.376 C27.104,9.376 26.784,11.264 26.784,15.712 L26.784,17.376 C26.784,21.888 27.168,22.944 28.544,22.944 Z M31.168,24 L30.816,21.76 C30.144,23.36 28.896,24.32 26.4,24.32 C22.848,24.32 20.608,21.792 20.608,16.416 C20.608,11.008 22.848,8.448 26.944,8.448 C28.928,8.448 30.08,9.024 30.656,10.016 L30.656,0.576 L28.704,0.576 L28.704,0 L36.704,0 L36.704,23.424 L38.272,23.424 L38.272,24 L31.168,24 Z M57.824,24 L50.528,24 L50.176,21.664 C49.568,23.168 48.544,24.32 45.664,24.32 C42.688,24.32 40.704,22.848 40.704,18.976 L40.704,9.344 L38.912,9.344 L38.912,8.768 L46.656,8.768 L46.656,19.744 C46.656,22.464 47.04,22.88 47.84,22.88 C49.12,22.88 50.112,21.568 50.112,19.136 L50.112,9.344 L48.64,9.344 L48.64,8.768 L56.064,8.768 L56.064,23.424 L57.824,23.424 L57.824,24 Z M67.424,9.024 C65.568,9.024 64.8,10.88 64.8,15.648 L64.8,17.312 C64.8,21.408 65.536,23.232 68.032,23.232 C70.944,23.232 72.192,20.768 72.544,19.04 L73.12,19.104 C72.704,21.088 71.648,24.32 66.304,24.32 C61.376,24.32 58.624,21.568 58.624,16.576 C58.624,11.2 61.888,8.448 67.168,8.448 C71.072,8.448 73.024,10.112 73.024,12.512 C73.024,14.496 71.968,15.52 70.368,15.52 C68.704,15.52 67.52,14.656 67.52,12.864 C67.52,12.576 67.552,12.16 67.68,11.712 L68.736,11.712 C68.896,11.264 68.96,10.88 68.96,10.56 C68.96,9.472 68.32,9.024 67.424,9.024 Z M81.6,16.48 L82.528,16.48 L82.528,14.016 C82.528,9.952 82.176,8.896 80.896,8.896 C80.32,8.896 79.392,9.152 79.392,10.176 C79.392,10.432 79.456,10.752 79.584,11.104 L80.384,11.104 C80.544,11.52 80.64,11.936 80.64,12.544 C80.64,14.048 79.424,15.04 77.824,15.04 C75.84,15.04 75.072,13.952 75.072,12.384 C75.072,9.696 77.408,8.448 81.76,8.448 C86.784,8.448 88.48,9.856 88.48,14.496 L88.48,20.992 C88.48,22.304 88.864,22.656 89.408,22.656 C89.984,22.656 90.528,22.048 90.688,19.36 L91.168,19.392 C91.008,23.232 89.824,24.32 87.072,24.32 C84.48,24.32 83.04,23.52 82.656,21.952 C82.144,23.488 81.216,24.32 78.976,24.32 C76.736,24.32 74.24,23.648 74.24,20.448 C74.24,17.216 77.024,16.48 81.6,16.48 Z M81.152,23.04 C81.76,23.04 82.528,22.016 82.528,19.968 L82.528,16.992 L82.304,16.992 C80.96,16.992 80.32,17.952 80.32,19.904 L80.32,20.416 C80.32,22.72 80.544,23.04 81.152,23.04 Z M93.088,19.424 L93.088,9.344 L91.328,9.344 L91.328,8.768 L93.088,8.768 L93.088,4.64 L99.04,3.168 L99.04,8.768 L103.2,8.768 L103.2,9.344 L99.04,9.344 L99.04,20.128 C99.04,22.016 99.328,23.04 100.448,23.04 C101.984,23.04 102.944,21.632 103.232,19.456 L103.776,19.52 C103.488,22.016 102.432,24.32 98.528,24.32 C95.36,24.32 93.088,23.392 93.088,19.424 Z M104.256,16.416 C104.256,10.88 108.032,8.448 112.48,8.448 C117.504,8.448 119.648,10.976 119.456,15.744 L110.432,15.744 L110.432,16.992 C110.432,20.768 111.104,23.328 114.208,23.328 C116.576,23.328 118.176,21.824 118.88,19.36 L119.456,19.456 C118.72,22.208 117.056,24.32 112.512,24.32 C106.816,24.32 104.256,21.056 104.256,16.416 Z M110.464,15.104 L113.76,15.104 L113.76,13.536 C113.76,10.176 113.504,9.056 112.192,9.056 C111.072,9.056 110.464,10.144 110.464,13.536 L110.464,15.104 Z M128.864,22.944 C129.792,22.944 131.072,22.048 131.072,19.648 L131.072,12.672 C131.072,10.944 130.4,9.376 128.992,9.376 C127.424,9.376 127.104,11.264 127.104,15.712 L127.104,17.376 C127.104,21.888 127.488,22.944 128.864,22.944 Z M131.488,24 L131.136,21.76 C130.464,23.36 129.216,24.32 126.72,24.32 C123.168,24.32 120.928,21.792 120.928,16.416 C120.928,11.008 123.168,8.448 127.264,8.448 C129.248,8.448 130.4,9.024 130.976,10.016 L130.976,0.576 L129.024,0.576 L129.024,0 L137.024,0 L137.024,23.424 L138.592,23.424 L138.592,24 L131.488,24 Z M140.544,21.568 C140.544,20 141.504,18.752 143.296,18.752 C144.96,18.752 146.144,19.584 146.144,21.472 C146.144,23.168 145.184,24.32 143.392,24.32 C141.248,24.32 140.544,22.848 140.544,21.568 Z" id="Educated." fill="#FFFFFF"></path>
    </g>
</svg>